<svg version="1.1" id="Layer_1" xmlns="http://www.w3.org/2000/svg" xmlns:xlink="http://www.w3.org/1999/xlink" x="0px" y="0px"
	 width="100%" viewBox="0 0 899 318" enable-background="new 0 0 899 318" xml:space="preserve">
<path fill="#000000" opacity="1.000000" stroke="none" 
	d="
M566.000000,319.000000 
	C378.833344,319.000000 192.166672,318.986877 5.500053,319.093689 
	C1.750723,319.095825 0.900987,318.249634 0.905288,314.499878 
	C1.023619,211.333359 1.021816,108.166641 0.904518,5.000109 
	C0.900625,1.576045 1.576566,0.904760 5.000032,0.905932 
	C302.000000,1.007623 599.000000,1.007623 895.999939,0.905933 
	C899.423462,0.904760 900.099426,1.576046 900.095520,5.000108 
	C899.978271,108.333313 899.978271,211.666702 900.095520,314.999878 
	C900.099426,318.423950 899.423889,319.098969 895.999878,319.095367 
	C786.166687,318.979523 676.333313,319.000000 566.000000,319.000000 
z"/>
<path fill="#FDFDFE" opacity="1.000000" stroke="none" 
	d="
M24.756584,267.174316 
	C34.672859,255.546051 44.653812,244.386017 54.436569,233.054871 
	C70.439682,214.518768 87.436394,196.865875 103.131721,178.051193 
	C106.006615,174.604919 106.614845,172.669113 102.807861,169.440216 
	C96.602394,164.177017 93.496391,157.342361 95.741394,148.963028 
	C97.611778,141.981995 102.641853,138.912247 109.759857,140.732590 
	C116.395485,142.429565 122.686325,145.214066 128.181808,149.297409 
	C143.373901,160.585678 156.954880,173.518433 167.666092,189.265854 
	C174.525604,199.350571 174.137817,206.457535 166.256134,215.853058 
	C159.276794,224.172974 150.252838,229.318619 140.079727,232.497620 
	C125.813896,236.955582 111.620453,241.775681 96.506035,242.719040 
	C93.380814,242.914078 90.321655,243.074066 86.528130,242.627884 
	C88.536758,240.054184 90.863060,239.160400 93.005669,238.195892 
	C107.605850,231.623581 121.123665,223.093369 134.960907,215.142563 
	C138.593933,213.055069 141.827820,210.478806 144.356949,207.058624 
	C146.542252,204.103424 146.086945,201.611160 143.531448,199.137070 
	C136.132401,191.973679 134.470535,191.685822 126.389687,198.492554 
	C95.213196,224.753372 60.019398,245.156555 25.836098,267.636597 
	C25.241510,267.683990 24.986877,267.624817 24.756584,267.174316 
z"/>
<path fill="#FCFCFD" opacity="1.000000" stroke="none" 
	d="
M510.972748,146.954437 
	C503.812347,146.929306 497.141571,147.048859 490.481537,146.834717 
	C484.836945,146.653214 482.927490,144.496109 483.644470,138.890457 
	C485.312897,125.845703 487.239899,112.834160 489.032227,99.805054 
	C489.743286,94.636162 492.459290,91.587555 497.844513,91.448936 
	C511.335968,91.101715 524.828186,90.993095 538.319763,91.505386 
	C543.271057,91.693398 545.440613,94.038185 545.131409,99.136711 
	C544.232422,113.960243 541.285828,128.510849 539.501587,143.214264 
	C538.779724,149.162949 537.934021,155.101349 536.952026,161.012436 
	C535.846558,167.667374 533.638733,169.783905 527.053772,169.864014 
	C512.056702,170.046509 497.055969,169.922409 482.057892,170.052704 
	C479.349915,170.076248 479.295990,169.199966 479.743439,166.858704 
	C481.873413,155.714218 483.639008,154.113937 494.859985,154.083267 
	C502.359589,154.062775 509.859253,154.076355 517.358887,154.060211 
	C519.193604,154.056259 520.982727,154.129135 522.000488,151.998001 
	C523.742004,148.351425 523.005981,147.009369 518.966614,146.960327 
	C516.467102,146.929962 513.966919,146.954529 510.972748,146.954437 
z"/>
<path fill="#FCFBFD" opacity="1.000000" stroke="none" 
	d="
M504.650757,241.634491 
	C504.374908,243.211777 504.158875,244.357925 503.990997,245.511078 
	C502.509491,255.687408 498.961151,258.249542 488.759949,257.081726 
	C485.805328,256.743500 486.742035,255.101089 486.940277,253.633270 
	C488.745178,240.267761 490.590179,226.907639 492.441223,213.548401 
	C493.629517,204.972549 494.828644,196.398087 496.058197,187.828064 
	C497.079254,180.711548 498.794220,178.780029 506.024384,178.637192 
	C519.181152,178.377289 532.351440,178.389206 545.507385,178.681366 
	C552.055359,178.826767 553.588318,180.756897 552.787292,187.078262 
	C551.196777,199.630646 549.467957,212.170410 547.490417,224.666992 
	C546.286377,232.275818 544.135742,233.886429 536.467346,233.967712 
	C528.635010,234.050735 520.801208,234.003174 512.968079,234.007401 
	C505.493713,234.011444 505.493713,234.008408 504.650757,241.634491 
z"/>
<path fill="#FCFBFD" opacity="1.000000" stroke="none" 
	d="
M425.610046,146.841614 
	C420.724548,146.403091 419.167603,143.773499 419.697021,139.607880 
	C420.536591,133.001999 421.250000,126.374062 422.324432,119.805771 
	C423.376007,113.376900 425.305573,111.609467 432.016205,111.376099 
	C440.672241,111.075066 449.344177,111.230019 458.009247,111.187302 
	C459.175659,111.181557 460.342041,111.168411 461.508423,111.158310 
	C462.990143,111.145470 464.141235,110.708855 464.263763,108.981102 
	C464.420410,106.771698 462.743591,107.189079 461.525330,107.180061 
	C455.359619,107.134361 449.193420,107.157066 443.027374,107.154564 
	C441.360870,107.153893 439.694336,107.158058 438.027893,107.144493 
	C427.183167,107.056221 425.683228,105.358231 426.054382,94.520836 
	C426.147339,91.807640 427.107147,91.160042 429.601196,91.177620 
	C444.098938,91.279800 458.600098,91.103844 473.094879,91.340752 
	C480.979736,91.469620 482.472656,93.456581 481.412262,101.234528 
	C479.725800,113.604614 478.076416,125.983582 476.098206,138.308533 
	C475.010254,145.086960 472.890259,146.808075 466.040192,146.877792 
	C452.710754,147.013443 439.378632,146.890228 425.610046,146.841614 
z"/>
<path fill="#FCFBFD" opacity="1.000000" stroke="none" 
	d="
M792.721436,130.590546 
	C793.243042,127.024033 793.643433,123.884819 794.134521,120.759842 
	C795.282104,113.456558 797.155945,111.600021 804.541748,111.331696 
	C811.532410,111.077721 818.537476,111.218254 825.536194,111.189468 
	C827.869263,111.179878 830.202759,111.210678 832.535156,111.171356 
	C834.177368,111.143669 836.213928,111.393761 836.221680,108.954979 
	C836.230713,106.125809 833.865234,107.226250 832.498657,107.205849 
	C823.501648,107.071533 814.502441,107.091835 805.504089,107.037827 
	C802.896118,107.022163 800.268982,106.548119 799.230530,103.862404 
	C797.763367,100.067642 797.733704,95.996841 798.479492,92.044930 
	C798.704895,90.850609 800.498352,91.228874 801.626221,91.229134 
	C816.124268,91.232468 830.624878,91.103302 845.119324,91.342865 
	C852.988281,91.472916 854.472351,93.463257 853.408875,101.258484 
	C851.721313,113.628166 850.071838,126.006874 848.093506,138.331543 
	C847.008484,145.090469 844.879639,146.799591 838.016968,146.880554 
	C825.187378,147.031952 812.353882,147.030838 799.524048,146.894897 
	C792.576294,146.821289 791.273682,145.230972 791.816284,138.468506 
	C792.015869,135.981033 792.362122,133.505356 792.721436,130.590546 
z"/>
<path fill="#FCFBFD" opacity="1.000000" stroke="none" 
	d="
M723.896484,93.339279 
	C726.128540,98.242294 724.707642,102.816040 724.093628,107.372963 
	C722.761414,117.259872 721.422180,127.146950 719.944458,137.012802 
	C718.770691,144.849640 716.630005,146.824554 708.894531,146.906204 
	C696.413879,147.037933 683.930115,147.036087 671.449280,146.914764 
	C663.928955,146.841660 662.333191,144.910248 663.289917,137.426605 
	C664.027649,131.656677 664.889160,125.898582 665.866089,120.164268 
	C667.049377,113.218575 668.658142,111.613129 675.652405,111.367332 
	C683.964478,111.075241 692.292114,111.228828 700.613037,111.189445 
	C701.944397,111.183144 703.275879,111.181541 704.607178,111.170891 
	C706.186829,111.158249 707.743774,110.972412 707.883789,108.965530 
	C708.067810,106.328247 705.947754,107.209282 704.709839,107.195473 
	C695.890015,107.097107 687.067688,107.195450 678.248840,107.059296 
	C671.375793,106.953194 666.618896,98.291389 669.964355,92.272560 
	C670.590149,91.146637 671.552551,91.232498 672.511414,91.234879 
	C687.655212,91.272354 702.799377,91.286507 717.942261,91.431725 
	C719.881226,91.450317 721.954224,91.684700 723.896484,93.339279 
z"/>
<path fill="#FBFAFC" opacity="1.000000" stroke="none" 
	d="
M465.967163,234.008774 
	C455.144562,233.984360 444.815582,234.007584 434.487915,233.903488 
	C431.694763,233.875336 428.268768,234.062943 427.186523,230.855118 
	C425.893005,227.020874 426.624054,222.886902 427.701538,219.049026 
	C428.177795,217.352539 430.341827,218.120728 431.748779,218.113388 
	C442.077209,218.059494 452.406067,218.084656 462.734772,218.083389 
	C463.734283,218.083267 464.735138,218.036957 465.732971,218.075378 
	C467.339050,218.137192 468.302979,217.372803 468.469788,215.817566 
	C468.720673,213.477722 466.839142,214.175018 465.733521,214.165771 
	C457.737640,214.098892 449.740967,214.140686 441.744568,214.121445 
	C428.589111,214.089813 428.283173,213.764557 429.999939,200.996719 
	C430.665161,196.049301 431.422852,191.112808 432.232147,186.186737 
	C433.003754,181.490250 435.594574,178.651978 440.596466,178.617462 
	C456.085510,178.510590 471.574768,178.431763 487.064056,178.360123 
	C488.202026,178.354843 489.336365,178.255035 489.653412,179.935745 
	C491.046631,187.321167 485.847046,193.934387 478.249603,194.061218 
	C469.755615,194.203018 461.258118,194.131912 452.762146,194.162537 
	C451.597137,194.166733 450.421326,194.134872 449.270172,194.277939 
	C447.790405,194.461838 446.715881,195.255005 446.896851,196.897690 
	C447.090179,198.652451 448.603027,198.150024 449.635193,198.157043 
	C456.964905,198.206970 464.295135,198.179535 471.625183,198.189972 
	C486.282623,198.210815 486.515961,198.430038 484.976074,213.104874 
	C484.559967,217.070419 483.907562,221.021530 483.155151,224.939240 
	C481.732574,232.346390 480.045746,233.708435 472.457916,233.944672 
	C470.460327,234.006866 468.460236,233.989426 465.967163,234.008774 
z"/>
<path fill="#FCFBFD" opacity="1.000000" stroke="none" 
	d="
M393.000122,91.214737 
	C400.828888,91.215408 408.160187,91.327934 415.485199,91.162170 
	C418.448303,91.095108 419.150726,91.978424 418.674530,94.907822 
	C416.935913,105.604149 415.426117,107.039261 404.441986,107.132767 
	C396.947144,107.196564 389.451447,107.149254 381.956116,107.161369 
	C380.791229,107.163254 379.619598,107.148788 378.463287,107.264244 
	C376.960022,107.414345 375.898438,108.201408 376.037720,109.833618 
	C376.192047,111.642113 377.738739,111.067024 378.748657,111.074181 
	C386.410156,111.128502 394.072205,111.099052 401.734100,111.110435 
	C415.249176,111.130516 416.186676,112.182228 414.284424,125.406334 
	C413.574188,130.343597 412.798615,135.272888 411.956329,140.189270 
	C411.232605,144.413940 408.500977,146.676941 404.345703,146.711975 
	C390.191437,146.831284 376.035248,146.830978 361.880737,146.735474 
	C357.630188,146.706818 355.745239,144.408661 355.863983,139.982498 
	C356.102478,131.089371 355.958008,131.085632 364.942413,131.085251 
	C373.936798,131.084869 382.931213,131.085083 391.925598,131.082352 
	C392.924866,131.082047 393.924744,131.038208 394.923309,131.060150 
	C396.766846,131.100632 397.867584,130.089478 397.832031,128.387253 
	C397.787140,126.239456 395.893433,127.086365 394.807373,127.076454 
	C385.480560,126.991234 376.152100,127.079659 366.825562,126.979675 
	C358.997040,126.895760 357.592804,125.081558 358.777679,117.189468 
	C359.617645,111.594452 360.273651,105.968803 361.241974,100.396835 
	C362.454498,93.419304 364.426727,91.598106 371.516083,91.336784 
	C378.502747,91.079247 385.504822,91.238403 393.000122,91.214737 
z"/>
<path fill="#FCFBFD" opacity="1.000000" stroke="none" 
	d="
M323.934814,131.085632 
	C326.755463,131.069946 329.086151,131.053925 331.416809,131.038696 
	C333.019104,131.028229 333.925964,130.212708 333.994110,128.627060 
	C334.093445,126.314781 332.255524,127.077751 331.156433,127.069061 
	C321.833038,126.995346 312.508240,127.074425 303.185242,126.978226 
	C295.353241,126.897415 294.010193,125.374298 294.953461,117.758705 
	C295.628052,112.312408 296.367126,106.868423 297.292267,101.460159 
	C298.731598,93.045601 300.644409,91.380272 309.171051,91.268410 
	C318.826416,91.141739 328.484497,91.222237 338.141418,91.215881 
	C342.803406,91.212814 347.468597,91.321259 352.126068,91.176682 
	C354.672638,91.097618 355.148315,92.132523 354.965332,94.455910 
	C354.178589,104.444168 351.645386,106.982666 341.653381,107.112137 
	C333.995667,107.211365 326.335785,107.146011 318.676880,107.157677 
	C317.511566,107.159454 316.345764,107.164505 315.181091,107.198914 
	C313.451660,107.250015 312.111145,108.083420 312.220428,109.849823 
	C312.351257,111.964348 314.268219,111.044945 315.364227,111.056686 
	C323.854736,111.147629 332.346863,111.071945 340.837982,111.128448 
	C350.541504,111.193016 351.868042,112.532310 350.900818,122.318062 
	C350.313263,128.262573 349.130707,134.148666 348.203278,140.059082 
	C347.490601,144.600891 344.547302,146.716782 340.224670,146.747879 
	C326.241547,146.848526 312.256805,146.845398 298.273560,146.752930 
	C293.750916,146.723022 291.597015,144.234634 292.088165,139.651642 
	C292.283020,137.833191 292.680786,136.020645 292.697723,134.202728 
	C292.722595,131.524612 294.058319,131.004608 296.472504,131.037537 
	C305.461823,131.160172 314.453827,131.085953 323.934814,131.085632 
z"/>
<path fill="#FCFBFD" opacity="1.000000" stroke="none" 
	d="
M596.901855,233.948639 
	C585.437866,233.926331 574.456543,234.021896 563.480042,233.836151 
	C556.009583,233.709717 554.288879,231.667068 555.245117,224.293381 
	C556.784119,212.426697 558.419617,200.570618 560.193848,188.736954 
	C561.471313,180.215927 563.697754,178.325592 572.374512,178.264618 
	C584.351196,178.180450 596.331787,178.131622 608.305603,178.350418 
	C616.436951,178.499008 617.858276,179.956284 616.924316,187.910736 
	C615.451843,200.450485 613.662109,212.961807 611.629517,225.423630 
	C610.435486,232.744110 608.264709,233.785995 596.901855,233.948639 
z"/>
<path fill="#FDFCFD" opacity="1.000000" stroke="none" 
	d="
M87.143158,126.607063 
	C87.326462,122.251770 85.765457,117.757660 85.475998,113.127396 
	C84.545547,98.243187 84.529251,83.422882 91.739723,69.786629 
	C102.130966,50.134987 116.297943,45.304909 136.590179,54.501064 
	C147.899902,59.626480 157.479492,66.874435 162.731033,78.658707 
	C163.334366,80.012550 163.831558,81.447571 164.132965,82.895950 
	C165.182693,87.940239 164.461349,92.815811 160.311035,96.055855 
	C156.031387,99.396881 151.384155,97.581642 147.267151,95.100754 
	C141.211273,91.451492 136.969864,85.710060 131.779404,81.052361 
	C118.873528,69.471161 110.844643,70.348083 101.817535,85.099571 
	C94.498985,97.059021 91.734200,110.662758 88.067917,123.933022 
	C87.850952,124.718346 87.568787,125.485657 87.143158,126.607063 
z"/>
<path fill="#FBFAFC" opacity="1.000000" stroke="none" 
	d="
M744.392944,188.214874 
	C743.247131,192.414856 740.455261,193.892227 736.814514,194.027023 
	C732.153198,194.199615 727.482605,194.353333 722.822693,194.240234 
	C720.229980,194.177292 718.975342,194.760330 718.676208,197.645401 
	C718.075806,203.436127 717.152527,209.201721 716.135864,214.937485 
	C715.614563,217.878540 716.919128,218.248550 719.355347,218.198471 
	C725.185913,218.078674 731.022949,218.258804 736.852661,218.118469 
	C739.451599,218.055923 740.260925,218.786057 740.081787,221.530655 
	C739.443787,231.308487 736.909363,233.926224 727.210999,233.987091 
	C720.045105,234.032074 712.876099,234.090668 705.713074,233.932938 
	C699.450073,233.794998 697.738525,231.621521 698.626221,225.431168 
	C699.925842,216.367432 701.129272,207.286850 702.642090,198.258423 
	C703.167236,195.124741 702.496460,193.878662 699.239197,194.264984 
	C697.760132,194.440414 696.178284,194.568085 694.757263,194.232956 
	C692.312256,193.656326 688.484131,196.189911 687.573303,192.517853 
	C686.281006,187.308350 690.079041,180.095764 693.863403,179.126099 
	C695.781128,178.634705 697.873779,178.185516 699.788086,178.446198 
	C704.737976,179.120270 706.100281,176.855240 706.232117,172.314255 
	C706.352112,168.181015 707.651917,164.086960 707.835815,159.949158 
	C708.000793,156.237946 709.331543,154.791199 713.008545,155.428940 
	C714.808289,155.741089 716.653687,155.797821 718.480469,155.944931 
	C722.514771,156.269791 723.993896,158.724442 723.613281,162.423630 
	C723.221558,166.230148 722.687927,170.032318 721.987610,173.793793 
	C721.371887,177.100830 722.041443,178.647522 725.880127,178.420380 
	C731.194519,178.105881 736.547119,178.488403 741.872681,178.288773 
	C745.102173,178.167694 746.614014,178.934555 745.566101,182.454193 
	C745.046875,184.198364 744.868591,186.044037 744.392944,188.214874 
z"/>
<path fill="#FDFCFD" opacity="1.000000" stroke="none" 
	d="
M200.232422,146.682220 
	C196.755035,139.767044 194.056732,133.004532 193.993179,125.471397 
	C193.967499,122.427582 194.534225,119.499245 195.783554,116.737442 
	C197.335144,113.307503 199.371719,109.980141 203.372040,109.458572 
	C207.688889,108.895737 210.436554,112.029289 212.670288,115.180244 
	C215.188507,118.732544 216.416656,122.942757 217.860031,127.022514 
	C219.022339,130.307816 219.804504,133.869354 221.633926,136.750443 
	C227.241272,145.581360 232.226959,148.902496 241.783554,141.819290 
	C256.380554,131.000229 267.302490,117.640083 272.639404,98.990776 
	C274.484558,106.438431 273.910187,112.760490 272.036255,119.028503 
	C266.117126,138.827606 256.446472,155.834198 236.883820,165.184570 
	C228.691116,169.100464 220.849869,168.468842 213.560013,162.551575 
	C208.167221,158.174194 203.928818,152.918518 200.232422,146.682220 
z"/>
<path fill="#FCFBFD" opacity="1.000000" stroke="none" 
	d="
M551.239563,92.579453 
	C556.205750,90.323349 561.367126,91.172523 566.405701,92.431953 
	C569.255127,93.144196 569.252869,95.909653 568.949829,98.263992 
	C567.802307,107.176865 566.573120,116.079895 565.289734,124.974380 
	C564.408875,131.079163 564.346252,131.074341 570.458984,131.083527 
	C575.124268,131.090530 579.808838,130.825714 584.448669,131.169113 
	C588.018738,131.433304 589.371521,130.304169 589.794556,126.715515 
	C591.002502,116.468536 592.815796,106.289688 593.886719,96.031395 
	C594.308105,91.995140 595.908875,90.828911 599.551636,91.350159 
	C600.701782,91.514740 601.875244,91.555679 603.039429,91.575356 
	C607.969177,91.658691 609.933167,94.277237 609.331726,98.993561 
	C608.089539,108.734825 606.817810,118.472450 605.512939,128.205521 
	C605.004395,131.998917 604.431274,135.785812 603.784851,139.558060 
	C602.963867,144.348206 600.029968,146.894012 595.190857,146.914749 
	C581.529175,146.973297 567.865356,147.047226 554.205811,146.862839 
	C548.415039,146.784668 546.687683,144.419220 547.494019,138.384445 
	C549.147522,126.010033 550.965820,113.657639 552.615295,101.282730 
	C552.995850,98.427719 554.293518,95.321770 551.239563,92.579453 
z"/>
<path fill="#FDFDFE" opacity="1.000000" stroke="none" 
	d="
M197.693161,58.884796 
	C213.279358,57.128769 222.345535,69.699982 222.764969,82.207222 
	C223.192047,94.941902 212.206589,105.483681 199.575226,105.155182 
	C189.958527,104.905083 181.233551,96.827415 179.209549,86.300407 
	C177.147339,75.574715 183.086761,64.264999 193.008194,60.150253 
	C194.372650,59.584370 195.867615,59.333176 197.693161,58.884796 
z"/>
<path fill="#FBFAFC" opacity="1.000000" stroke="none" 
	d="
M734.131653,97.420258 
	C735.337036,92.974365 738.449951,91.625504 742.185303,91.496284 
	C748.340271,91.283356 754.502869,91.253105 760.662598,91.222504 
	C768.990234,91.181129 777.318237,91.207916 785.646118,91.213707 
	C791.636108,91.217873 791.636108,91.223900 790.570190,96.921112 
	C788.954102,105.559036 787.420898,106.958916 778.774292,107.080482 
	C770.281372,107.199890 761.784729,107.236290 753.292297,107.119881 
	C749.801819,107.072037 748.240234,108.354942 747.811890,111.928337 
	C746.762634,120.681366 745.475647,129.410843 744.061951,138.113663 
	C742.946594,144.979828 740.996887,146.573792 734.196655,146.903641 
	C732.201477,147.000427 730.200562,146.985016 728.202148,147.006500 
	C726.875610,147.020767 725.548767,147.009216 724.033875,147.009216 
	C731.152222,135.877762 729.120239,122.974480 731.903381,111.109055 
	C732.926208,106.748413 733.345154,102.246086 734.131653,97.420258 
z"/>
<path fill="#FBFAFC" opacity="1.000000" stroke="none" 
	d="
M624.817810,193.657104 
	C626.561218,179.192551 627.471008,178.370346 641.646729,178.345566 
	C653.979126,178.324005 666.316772,178.544296 678.641113,178.229202 
	C683.013855,178.117416 683.558411,179.648819 682.936462,183.383072 
	C681.469055,192.193619 679.631714,193.977356 670.511169,194.094940 
	C662.346375,194.200211 654.176880,194.276031 646.014709,194.109177 
	C642.084900,194.028824 640.357300,195.479095 639.898071,199.465897 
	C638.908203,208.061691 637.676514,216.639145 636.220459,225.168900 
	C634.957275,232.569107 627.309692,236.590836 620.363586,233.968781 
	C618.602844,233.304123 619.309570,232.187332 619.453247,231.170227 
	C621.200439,218.806610 622.981079,206.447739 624.817810,193.657104 
z"/>
<path fill="#FBFAFC" opacity="1.000000" stroke="none" 
	d="
M646.159607,83.141205 
	C646.406982,81.731827 646.630859,80.758423 646.793213,79.774857 
	C648.459656,69.680122 650.342590,68.258690 660.500610,68.170204 
	C663.997803,68.139755 664.301086,69.547974 663.897461,72.349266 
	C661.717773,87.477592 659.655334,102.622803 657.486450,117.752724 
	C656.449951,124.983284 655.230469,132.187454 654.163574,139.413879 
	C653.395081,144.618790 650.175598,146.802109 645.209045,146.875885 
	C641.557434,146.930130 637.904297,146.886520 633.541748,146.886520 
	C641.135010,139.249023 639.278015,129.424088 640.869263,120.577179 
	C643.072937,108.324562 644.403198,95.914886 646.159607,83.141205 
z"/>
<path fill="#F36109" opacity="1.000000" stroke="none" 
	d="
M86.870178,126.891739 
	C92.177345,135.704758 94.482765,144.784500 89.398430,154.651001 
	C82.287956,168.449326 66.504539,172.824463 52.934303,164.626724 
	C40.586185,157.167252 37.534794,140.132294 46.376572,128.016953 
	C54.964737,116.249100 72.189995,114.394020 83.451973,124.039520 
	C84.458870,124.901894 85.375107,125.870132 86.651398,126.870987 
	C86.969360,126.952774 86.871468,126.941017 86.870178,126.891739 
z"/>
<path fill="#FBFAFC" opacity="1.000000" stroke="none" 
	d="
M613.001709,136.705399 
	C615.012756,122.444313 617.078003,108.619759 618.884033,94.761421 
	C619.245239,91.989326 620.211792,91.227341 622.913208,91.148270 
	C635.437805,90.781639 635.511719,90.709991 633.849243,103.075157 
	C632.341736,114.288063 630.713318,125.485977 629.007080,136.670502 
	C627.677246,145.387711 625.833069,146.871246 616.861633,146.985870 
	C614.083252,147.021362 611.304077,146.991394 607.287048,146.991394 
	C610.790588,143.829498 612.996155,141.000443 613.001709,136.705399 
z"/>
<path fill="#FAF8FB" opacity="1.000000" stroke="none" 
	d="
M625.273682,87.342529 
	C620.958618,87.883713 619.152954,86.670715 620.590454,82.514763 
	C620.910767,81.588524 620.899414,80.548813 621.051819,79.563065 
	C622.542847,69.918983 626.460999,67.051704 636.081909,68.338844 
	C637.792114,68.567650 638.477539,69.107239 638.223999,70.815369 
	C637.906799,72.952293 637.708984,75.107483 637.369568,77.240456 
	C635.761597,87.344696 635.750671,87.342957 625.273682,87.342529 
z"/>
<path fill="#FDFDFE" opacity="1.000000" stroke="none" 
	d="
M25.325666,267.496918 
	C24.875740,267.863220 23.940531,268.526764 24.519775,266.904663 
	C24.905668,266.938843 25.030428,267.094727 25.325666,267.496918 
z"/>
<path fill="#000000" opacity="1.000000" stroke="none" 
	d="
M528.113525,109.983055 
	C527.335693,115.880997 526.570923,121.316261 525.868164,126.759529 
	C525.504150,129.578888 524.470947,131.280838 521.135193,131.151398 
	C515.483521,130.932083 509.813965,130.985016 504.158142,131.144730 
	C501.568390,131.217834 500.545929,130.529190 500.980957,127.789764 
	C501.867706,122.205650 502.528259,116.585968 503.329590,110.987747 
	C503.628082,108.902130 504.244568,107.117241 506.956207,107.143921 
	C513.281616,107.206146 519.608276,107.175377 525.934143,107.142288 
	C527.610840,107.133522 528.435852,107.776314 528.113525,109.983055 
z"/>
<path fill="#000000" opacity="1.000000" stroke="none" 
	d="
M508.415680,214.407379 
	C509.250488,208.716827 510.065979,203.472748 510.712616,198.207947 
	C511.064972,195.339294 512.547485,194.220062 515.356567,194.260254 
	C520.998352,194.340973 526.642822,194.323456 532.285034,194.255829 
	C534.489685,194.229416 535.707275,194.672607 535.287720,197.340683 
	C534.360474,203.236145 533.672791,209.169220 532.879517,215.085907 
	C532.591187,217.236252 531.401794,218.201813 529.179443,218.179611 
	C523.039246,218.118271 516.895264,218.063705 510.758179,218.220123 
	C507.948700,218.291748 507.801758,216.929413 508.415680,214.407379 
z"/>
<path fill="#000000" opacity="1.000000" stroke="none" 
	d="
M458.512756,131.081055 
	C452.103210,131.091644 446.147186,131.145782 440.193542,131.050995 
	C438.978638,131.031662 436.902435,131.956741 437.017975,129.331406 
	C437.106415,127.321342 438.550507,127.032082 440.163239,127.031769 
	C446.283844,127.030609 452.405304,126.974388 458.524261,127.073944 
	C459.608124,127.091576 461.498444,126.172989 461.635284,128.271057 
	C461.737793,129.842239 460.930603,131.162323 458.512756,131.081055 
z"/>
<path fill="#000000" opacity="1.000000" stroke="none" 
	d="
M821.992004,127.023727 
	C825.454529,127.025696 828.429077,126.990593 831.401611,127.052719 
	C832.266724,127.070808 833.620178,126.679863 833.640442,128.149017 
	C833.658691,129.463989 833.320435,130.971664 831.585144,130.989609 
	C824.483154,131.062988 817.380127,131.044312 810.277466,131.031128 
	C809.258789,131.029236 808.920654,130.366837 808.992065,129.401291 
	C809.112427,127.772591 810.043030,127.066895 811.591248,127.057495 
	C814.895203,127.037422 818.199280,127.033989 821.992004,127.023727 
z"/>
<path fill="#000000" opacity="1.000000" stroke="none" 
	d="
M687.177368,131.099762 
	C684.699280,130.256699 680.791870,132.870987 680.717651,129.443817 
	C680.630371,125.412437 684.774170,127.221848 687.086731,127.100792 
	C692.072754,126.839760 697.082886,126.970016 702.080933,127.061089 
	C703.189026,127.081284 705.007996,126.264397 705.057373,128.527222 
	C705.099548,130.459259 703.905579,131.095551 702.150391,131.091354 
	C697.317322,131.079773 692.484314,131.095093 687.177368,131.099762 
z"/>
<path fill="#000000" opacity="1.000000" stroke="none" 
	d="
M588.997192,194.051270 
	C600.423462,194.051270 600.423523,194.051285 598.689026,204.908920 
	C596.592163,218.034058 596.591797,218.084305 583.318665,218.001068 
	C579.698914,217.978378 574.631958,219.608978 572.872803,217.284775 
	C571.305481,215.214050 573.265137,210.419342 573.773499,206.841751 
	C575.591431,194.049072 575.608337,194.051483 588.997192,194.051270 
z"/>
<path fill="#000000" opacity="1.000000" stroke="none" 
	d="
M73.690254,132.685181 
	C74.082115,131.908463 74.218773,131.393234 74.527763,131.021118 
	C76.202560,129.004120 76.225342,124.277107 79.038284,124.978111 
	C82.793350,125.913910 85.222244,129.783829 86.887207,133.528976 
	C87.550789,135.021622 86.509590,135.573608 85.262123,135.967148 
	C81.134155,137.269333 77.916901,139.866669 75.546669,143.399704 
	C73.958916,145.766388 72.485321,144.343521 70.872551,143.690948 
	C68.482567,142.723892 69.376984,141.212845 70.149818,139.691223 
	C71.278633,137.468719 72.393677,135.239243 73.690254,132.685181 
z"/>
<path fill="#000000" opacity="1.000000" stroke="none" 
	d="
M67.176857,139.055450 
	C65.850876,141.926926 64.318764,140.238831 62.940823,139.689499 
	C61.467361,139.102066 61.129299,138.114075 61.704365,136.532837 
	C63.281857,132.195236 63.335754,127.791786 61.788246,123.406677 
	C61.409138,122.332420 61.451706,121.366226 62.803661,121.180313 
	C66.435249,120.680908 70.045357,120.571236 73.572357,121.917328 
	C75.978943,122.835815 74.676926,124.248352 74.072052,125.467400 
	C71.867981,129.909454 69.589226,134.314453 67.176857,139.055450 
z"/>
<path fill="#000000" opacity="1.000000" stroke="none" 
	d="
M59.467690,154.552643 
	C59.071167,155.328659 58.873749,155.787048 58.650448,156.232437 
	C55.013416,163.486740 53.619610,163.499802 48.628826,156.602295 
	C46.894989,154.206024 46.000271,152.510056 49.791786,151.208618 
	C53.355591,149.985352 55.865089,147.184937 57.905441,144.096588 
	C59.073334,142.328857 60.102367,141.487335 62.323666,142.631561 
	C64.774025,143.893753 64.117363,145.331558 63.198280,147.091019 
	C61.968616,149.445007 60.831570,151.847366 59.467690,154.552643 
z"/>
<path fill="#000000" opacity="1.000000" stroke="none" 
	d="
M65.356720,149.287628 
	C66.494858,147.366684 66.761299,145.048523 69.781097,146.465454 
	C72.527794,147.754242 72.199661,149.323959 71.424522,151.639526 
	C70.321640,154.934189 69.542900,158.364319 70.698364,161.866440 
	C71.647263,164.742493 70.422516,165.892227 67.607750,165.810287 
	C67.277000,165.800659 66.945541,165.816818 66.614395,165.819717 
	C58.391994,165.891724 57.545994,164.634689 61.094284,157.566833 
	C62.429928,154.906357 63.808239,152.267303 65.356720,149.287628 
z"/>
<path fill="#000000" opacity="1.000000" stroke="none" 
	d="
M50.980545,147.178864 
	C45.326134,150.159515 44.187744,149.462067 44.182709,143.427338 
	C44.182571,143.262115 44.158932,143.091644 44.190594,142.932449 
	C44.721191,140.264679 43.938484,135.932098 46.576851,135.496231 
	C49.687500,134.982346 52.878944,137.836151 55.807636,139.658691 
	C56.996056,140.398239 56.162704,141.510803 55.592575,142.207779 
	C54.242146,143.858627 52.734768,145.381088 50.980545,147.178864 
z"/>
<path fill="#000000" opacity="1.000000" stroke="none" 
	d="
M73.193924,158.814240 
	C73.186523,158.249451 73.169823,158.082153 73.191429,157.919952 
	C73.558372,155.165512 73.318199,151.109970 75.734772,150.388504 
	C78.727249,149.495102 81.613960,152.696274 84.602615,153.999908 
	C85.559303,154.417236 85.721672,155.166641 85.190704,155.991852 
	C82.892288,159.563950 79.764160,162.174103 75.802132,163.695572 
	C74.512962,164.190643 74.112000,163.080505 73.848312,162.100372 
	C73.592422,161.149200 73.414581,160.177032 73.193924,158.814240 
z"/>
<path fill="#000000" opacity="1.000000" stroke="none" 
	d="
M55.798431,123.660789 
	C60.007900,122.648476 59.378124,125.974472 59.722595,127.818535 
	C60.292850,130.871292 60.526363,135.396500 57.803360,136.238342 
	C54.909805,137.132919 51.557789,134.004715 48.646645,132.204224 
	C47.134079,131.268738 48.559708,130.151657 49.157043,129.317062 
	C50.815659,126.999702 53.029892,125.279373 55.798431,123.660789 
z"/>
<path fill="#000000" opacity="1.000000" stroke="none" 
	d="
M81.809029,149.239883 
	C76.604317,146.374924 76.462204,145.653580 80.615067,142.117172 
	C82.096649,140.855530 83.888809,139.928650 85.624756,139.010742 
	C86.296852,138.655350 87.289917,138.475983 87.989677,138.692276 
	C89.517776,139.164642 89.445221,146.996002 88.191231,149.985809 
	C86.847069,153.190582 85.329475,150.579773 83.903511,150.263504 
	C83.278824,150.124954 82.717567,149.700378 81.809029,149.239883 
z"/>
</svg>